<?xml version="1.0" encoding="UTF-8" standalone="no"?>
<svg
   xmlns:dc="http://purl.org/dc/elements/1.1/"
   xmlns:cc="http://creativecommons.org/ns#"
   xmlns:rdf="http://www.w3.org/1999/02/22-rdf-syntax-ns#"
   xmlns:svg="http://www.w3.org/2000/svg"
   xmlns="http://www.w3.org/2000/svg"
   id="svg8"
   version="1.1"
   viewBox="0 0 117.34962 53.523441"
   height="53.523441mm"
   width="117.34962mm">
  <defs
     id="defs2" />
  <metadata
     id="metadata5">
    <rdf:RDF>
      <cc:Work
         rdf:about="">
        <dc:format>image/svg+xml</dc:format>
        <dc:type
           rdf:resource="http://purl.org/dc/dcmitype/StillImage" />
        <dc:title></dc:title>
      </cc:Work>
    </rdf:RDF>
  </metadata>
  <g
     transform="translate(-44.906395,-101.5833)"
     id="layer1">
    <g
       id="text12"
       style="font-style:normal;font-weight:normal;font-size:34.5746727px;line-height:1.25;font-family:sans-serif;letter-spacing:0px;word-spacing:0px;fill:#000000;fill-opacity:1;stroke:none;stroke-width:0.86436683"
       transform="scale(1.0059946,0.99404114)"
       aria-label="le AB">
      <path
         id="path14"
         style="font-style:normal;font-variant:normal;font-weight:normal;font-stretch:normal;font-size:73.75930786px;font-family:'Le Havre';-inkscape-font-specification:'Le Havre , Normal';font-variant-ligatures:normal;font-variant-caps:normal;font-variant-numeric:normal;font-feature-settings:normal;text-align:start;writing-mode:lr-tb;text-anchor:start;stroke-width:0.86436683"
         d="m 44.638803,148.43933 v -46.24708 h 3.835484 v 46.24708 q 0,2.50782 0.442556,3.39293 0.516315,0.88511 2.286538,0.88511 0.442556,0 0.885112,-0.0737 l 0.295037,2.72909 q -0.885112,0.29504 -2.507816,0.29504 -2.950373,0 -4.130522,-1.69647 -1.106389,-1.69646 -1.106389,-5.53195 z" />
      <path
         id="path16"
         style="font-style:normal;font-variant:normal;font-weight:normal;font-stretch:normal;font-size:73.75930786px;font-family:'Le Havre';-inkscape-font-specification:'Le Havre , Normal';font-variant-ligatures:normal;font-variant-caps:normal;font-variant-numeric:normal;font-feature-settings:normal;text-align:start;writing-mode:lr-tb;text-anchor:start;stroke-width:0.86436683"
         d="m 58.369559,152.56986 q -3.24541,-3.54045 -3.24541,-9.29368 0,-5.75322 3.171651,-9.36743 3.245409,-3.61421 8.703598,-3.61421 5.384429,0 8.408561,3.46669 3.097891,3.39293 3.097891,9.51495 0,0.81136 -0.07376,0.95887 H 59.033393 q 0,4.20428 2.434057,6.56458 2.434057,2.3603 6.638337,2.3603 3.761725,0 8.039765,-2.13902 l 1.548945,2.28654 q -4.646836,2.72909 -9.957506,2.72909 -6.048263,0 -9.367432,-3.46668 z m 8.629839,-19.17742 q -3.24541,0 -5.458189,2.13902 -2.13902,2.13902 -2.434057,5.9745 h 15.563214 q -0.295037,-3.90924 -2.434057,-5.9745 -2.065261,-2.13902 -5.236911,-2.13902 z" />
      <path
         id="path18"
         style="font-style:normal;font-variant:normal;font-weight:normal;font-stretch:normal;font-size:73.75930786px;font-family:'Le Havre';-inkscape-font-specification:'Le Havre , Normal';font-variant-ligatures:normal;font-variant-caps:normal;font-variant-numeric:normal;font-feature-settings:normal;text-align:start;writing-mode:lr-tb;text-anchor:start;stroke-width:0.86436683"
         d="m 123.4656,155.29895 -4.20428,-14.38306 h -15.56321 l -4.278041,14.38306 h -4.27804 l 16.374571,-52.36911 16.3008,52.36911 z m -12.39156,-39.31371 -6.41706,21.61148 h 13.64547 l -6.26954,-21.61148 q -0.3688,-1.03263 -0.51631,-2.13902 -0.44256,2.06526 -0.44256,2.13902 z" />
      <path
         id="path20"
         style="font-style:normal;font-variant:normal;font-weight:normal;font-stretch:normal;font-size:73.75930786px;font-family:'Le Havre';-inkscape-font-specification:'Le Havre , Normal';font-variant-ligatures:normal;font-variant-caps:normal;font-variant-numeric:normal;font-feature-settings:normal;text-align:start;writing-mode:lr-tb;text-anchor:start;stroke-width:0.86436683"
         d="m 134.44076,155.00391 v -51.04144 q 5.31067,-1.03263 9.44119,-1.03263 13.27668,0 13.27668,12.17029 0,4.86811 -2.06526,7.74472 -2.06526,2.80286 -5.16315,3.46669 4.86811,0.59008 8.11352,4.27804 3.24541,3.61421 3.24541,10.32631 0,15.12065 -16.44833,15.12065 -5.08939,0 -10.40006,-1.03263 z m 4.13052,-26.40583 v 23.3817 q 2.7291,0.59008 6.12203,0.59008 12.39156,0 12.39156,-11.72773 0,-5.75323 -3.09789,-8.99864 -3.09789,-3.24541 -9.21991,-3.24541 z m 0,-21.68524 v 18.14479 h 5.23691 q 4.57308,0 6.93338,-2.50781 2.3603,-2.50782 2.3603,-7.22841 0,-5.16316 -2.58158,-7.00714 -2.58157,-1.84398 -6.7121,-1.84398 -3.68796,0 -5.23691,0.44255 z" />
    </g>
  </g>
</svg>
